<svg width="70" height="62" viewBox="0 0 70 62" fill="none" xmlns="http://www.w3.org/2000/svg">
<path d="M29.5081 55.2603C27.9714 55.7961 26.3884 56.1358 24.7824 56.2816C25.9247 55.7146 27.0553 54.9836 28.1582 54.0892C28.5982 53.7325 28.6658 53.0866 28.3089 52.6465C27.9521 52.2065 27.3061 52.1391 26.8663 52.4958C24.0464 54.7823 21.5155 55.5849 19.4265 55.6738C21.0107 54.1924 22.9223 51.5022 25.1789 46.8863C25.4277 46.3772 25.2168 45.763 24.7079 45.5143C24.199 45.2658 23.5847 45.4764 23.3359 45.9853C19.9683 52.8736 17.3669 55.224 16.2695 55.2237C16.196 55.2237 16.1292 55.2132 16.0694 55.1928C15.7029 55.0676 15.469 54.4891 15.3622 54.1552C13.5679 48.5501 18.7645 28.8731 25.6338 19.29L30.2611 12.8348C30.5216 12.4711 30.7827 11.9503 30.9962 11.3687L31.1418 10.9717L31.2092 10.9946L31.0815 11.3977C30.8943 11.9885 30.7821 12.5601 30.7656 13.0074L30.4822 20.7492C30.4616 21.3154 30.9037 21.7911 31.4698 21.8119C31.4826 21.8123 31.4953 21.8126 31.5079 21.8126C32.0571 21.8126 32.512 21.3777 32.5322 20.8243L32.7729 14.2475L34.2028 18.3875C34.3494 18.812 34.7469 19.0787 35.1721 19.0787C35.2832 19.0787 35.3962 19.0605 35.5071 19.0222C36.0426 18.8373 36.3267 18.2534 36.1418 17.7179L36.0912 17.5716L36.0962 17.5801C36.3889 18.065 37.0191 18.2214 37.5043 17.9285C37.9894 17.6359 38.1455 17.0056 37.8528 16.5205L36.3782 14.0763C36.1057 13.6244 36.0228 13.0716 36.1511 12.5597L38.4701 3.29939C38.6258 2.67823 38.4809 2.03887 38.0728 1.54544C37.6647 1.052 37.0652 0.789696 36.4247 0.825801L30.9985 1.13242C30.2455 1.17509 29.5894 1.63064 29.2861 2.32142L26.275 9.1853C26.0632 9.66834 25.6596 10.0546 25.1675 10.2451L14.5453 14.3585C9.87264 16.168 6.05114 19.2666 3.49357 23.319C1.11913 27.0813 -0.0873689 31.4826 0.00439754 36.0473C0.096164 40.612 1.47868 44.9614 4.00246 48.625C6.72085 52.5714 10.6639 55.5137 15.4057 57.1339C17.9087 57.9892 20.4538 58.417 22.9709 58.4168C25.4242 58.4168 27.8509 58.0102 30.183 57.1971C30.7178 57.0105 31.0003 56.4256 30.8137 55.8907C30.6272 55.3559 30.0428 55.0734 29.5081 55.2603ZM31.1506 3.17877L36.4611 2.87872L34.6749 10.0113L29.0034 8.07343L31.1506 3.17877ZM5.69228 47.4616C3.39702 44.1296 2.13951 40.1683 2.05594 36.0063C1.97225 31.8442 3.06948 27.8358 5.22893 24.414C7.54976 20.7367 11.0276 17.921 15.2867 16.2718L23.2562 13.1856L18.9277 16.0198C15.6976 18.1349 12.8628 21.2847 10.7296 25.1286C8.7616 28.6749 7.42052 32.7237 6.85105 36.8378C6.77337 37.399 7.16532 37.9168 7.72645 37.9944C7.77418 38.0011 7.8215 38.0042 7.86841 38.0042C8.37251 38.0042 8.81206 37.6323 8.88318 37.1189C10.0162 28.932 14.2958 21.5047 20.0516 17.7359L27.9151 12.5869L23.9668 18.095C20.7157 22.6304 17.4683 29.9389 15.2802 37.6449C13.3751 44.3543 12.6051 50.1181 13.124 53.5207C12.101 52.6533 11.2323 51.5395 10.529 50.1819C9.29414 47.7987 8.6273 44.7449 8.60063 41.3505C8.59612 40.7841 8.1325 40.3242 7.56685 40.333C7.00039 40.3375 6.54484 40.8003 6.54922 41.3669C6.57766 44.9713 7.26639 48.1475 8.51556 50.7214C7.46059 49.7417 6.51311 48.6532 5.69228 47.4616Z" fill="white"/>
<path d="M48.1502 17.4775C36.1021 17.4775 26.3002 27.2794 26.3002 39.3277C26.3002 51.3757 36.102 61.1776 48.1502 61.1776C60.1984 61.1776 70.0002 51.3757 70.0002 39.3277C70 27.2794 60.1982 17.4775 48.1502 17.4775ZM48.1502 59.1261C37.2333 59.1261 28.3516 50.2446 28.3516 39.3275C28.3516 28.4105 37.2331 19.5288 48.1502 19.5288C59.0672 19.5288 67.9487 28.4105 67.9487 39.3275C67.9487 50.2446 59.0671 59.1261 48.1502 59.1261Z" fill="white"/>
<path d="M48.1502 21.6079C38.3796 21.6079 30.4306 29.5569 30.4306 39.3274C30.4306 49.0979 38.3796 57.0468 48.1502 57.0468C57.9208 57.0468 65.8698 49.0979 65.8698 39.3274C65.8698 29.5569 57.9208 21.6079 48.1502 21.6079ZM48.1502 54.9956C39.5107 54.9956 32.482 47.9669 32.482 39.3276C32.482 30.6883 39.5107 23.6595 48.1502 23.6595C56.7896 23.6595 63.8184 30.6883 63.8184 39.3276C63.8184 47.9669 56.7896 54.9956 48.1502 54.9956Z" fill="white"/>
<path d="M48.1502 26.635C41.1515 26.635 35.4577 32.3289 35.4577 39.3276C35.4577 46.3262 41.1515 52.0201 48.1502 52.0201C52.843 52.0201 57.1358 49.4399 59.3532 45.2863C59.6201 44.7866 59.4312 44.1653 58.9315 43.8984C58.4316 43.6315 57.8103 43.8205 57.5436 44.3202C55.6835 47.8045 52.0843 49.9689 48.1502 49.9689C42.2828 49.9689 37.5091 45.1954 37.5091 39.3278C37.5091 33.4602 42.2828 28.6866 48.1502 28.6866C54.0178 28.6866 58.7914 33.4602 58.7914 39.3278C58.7914 39.7019 58.7702 40.0882 58.7285 40.4752C58.6678 41.0384 59.0752 41.5441 59.6384 41.605C60.2013 41.6658 60.7073 41.2583 60.7682 40.6951C60.8177 40.2353 60.8428 39.7753 60.8428 39.3279C60.8427 32.3289 55.1488 26.635 48.1502 26.635Z" fill="white"/>
<path d="M40.7703 39.3276C40.7703 43.3969 44.0809 46.7075 48.1502 46.7075C52.2195 46.7075 55.5301 43.3969 55.5301 39.3276C55.5301 35.2583 52.2194 31.9478 48.1502 31.9478C44.081 31.9478 40.7703 35.2583 40.7703 39.3276ZM53.4787 39.3276C53.4787 42.2657 51.0882 44.6561 48.1502 44.6561C45.2122 44.6561 42.8217 42.2657 42.8217 39.3276C42.8217 36.3896 45.212 33.9992 48.1502 33.9992C51.0884 33.9992 53.4787 36.3895 53.4787 39.3276Z" fill="white"/>
</svg>
